%TF.GenerationSoftware,KiCad,Pcbnew,6.0.2-378541a8eb~116~ubuntu20.04.1*%
%TF.CreationDate,2022-03-10T11:15:54-06:00*%
%TF.ProjectId,lna_sma_10x,6c6e615f-736d-4615-9f31-30782e6b6963,1.0*%
%TF.SameCoordinates,Original*%
%TF.FileFunction,Copper,L2,Inr*%
%TF.FilePolarity,Positive*%
%FSLAX46Y46*%
G04 Gerber Fmt 4.6, Leading zero omitted, Abs format (unit mm)*
G04 Created by KiCad (PCBNEW 6.0.2-378541a8eb~116~ubuntu20.04.1) date 2022-03-10 11:15:54*
%MOMM*%
%LPD*%
G01*
G04 APERTURE LIST*
G04 Aperture macros list*
%AMRoundRect*
0 Rectangle with rounded corners*
0 $1 Rounding radius*
0 $2 $3 $4 $5 $6 $7 $8 $9 X,Y pos of 4 corners*
0 Add a 4 corners polygon primitive as box body*
4,1,4,$2,$3,$4,$5,$6,$7,$8,$9,$2,$3,0*
0 Add four circle primitives for the rounded corners*
1,1,$1+$1,$2,$3*
1,1,$1+$1,$4,$5*
1,1,$1+$1,$6,$7*
1,1,$1+$1,$8,$9*
0 Add four rect primitives between the rounded corners*
20,1,$1+$1,$2,$3,$4,$5,0*
20,1,$1+$1,$4,$5,$6,$7,0*
20,1,$1+$1,$6,$7,$8,$9,0*
20,1,$1+$1,$8,$9,$2,$3,0*%
G04 Aperture macros list end*
%TA.AperFunction,ComponentPad*%
%ADD10RoundRect,0.250000X0.850000X0.600000X-0.850000X0.600000X-0.850000X-0.600000X0.850000X-0.600000X0*%
%TD*%
%TA.AperFunction,ComponentPad*%
%ADD11O,2.200000X1.700000*%
%TD*%
%TA.AperFunction,ViaPad*%
%ADD12C,0.508000*%
%TD*%
G04 APERTURE END LIST*
D10*
%TO.N,+5V*%
%TO.C,J2*%
X109865000Y-72225000D03*
D11*
%TO.N,GND*%
X109865000Y-69725000D03*
%TO.N,-5V*%
X109865000Y-67225000D03*
%TD*%
D12*
%TO.N,GND*%
X115375000Y-68500000D03*
%TO.N,+5V*%
X112250000Y-73125000D03*
%TO.N,-5V*%
X112000000Y-66375000D03*
X120850000Y-78525000D03*
%TO.N,GND*%
X111425000Y-69825000D03*
X111225000Y-76925000D03*
X106075000Y-85725000D03*
X106000000Y-77225000D03*
X119400000Y-84075000D03*
X127950000Y-78250000D03*
%TO.N,+5V*%
X127475000Y-74900000D03*
%TO.N,GND*%
X126975000Y-58050000D03*
%TO.N,+5V*%
X126100000Y-60900000D03*
%TO.N,-5V*%
X118525000Y-55075000D03*
%TO.N,GND*%
X106000000Y-62350000D03*
X106275000Y-53850000D03*
X112500000Y-55075000D03*
%TD*%
%TA.AperFunction,Conductor*%
%TO.N,+5V*%
G36*
X130692121Y-51895002D02*
G01*
X130738614Y-51948658D01*
X130750000Y-52001000D01*
X130750000Y-86999000D01*
X130729998Y-87067121D01*
X130676342Y-87113614D01*
X130624000Y-87125000D01*
X100634000Y-87125000D01*
X100565879Y-87104998D01*
X100519386Y-87051342D01*
X100508000Y-86999000D01*
X100508000Y-85714286D01*
X105307750Y-85714286D01*
X105324443Y-85884536D01*
X105378440Y-86046856D01*
X105382087Y-86052878D01*
X105382088Y-86052880D01*
X105463406Y-86187154D01*
X105463409Y-86187157D01*
X105467056Y-86193180D01*
X105585889Y-86316234D01*
X105729030Y-86409903D01*
X105735634Y-86412359D01*
X105735636Y-86412360D01*
X105882757Y-86467074D01*
X105882759Y-86467074D01*
X105889367Y-86469532D01*
X105968454Y-86480085D01*
X106051949Y-86491226D01*
X106051953Y-86491226D01*
X106058930Y-86492157D01*
X106065941Y-86491519D01*
X106065945Y-86491519D01*
X106222273Y-86477292D01*
X106222275Y-86477292D01*
X106229292Y-86476653D01*
X106235990Y-86474477D01*
X106235993Y-86474476D01*
X106385289Y-86425966D01*
X106385291Y-86425965D01*
X106391985Y-86423790D01*
X106538924Y-86336197D01*
X106662805Y-86218227D01*
X106676079Y-86198249D01*
X106753570Y-86081614D01*
X106757471Y-86075743D01*
X106818218Y-85915826D01*
X106842026Y-85746425D01*
X106842325Y-85725000D01*
X106823256Y-85555000D01*
X106766999Y-85393450D01*
X106676348Y-85248378D01*
X106663159Y-85235096D01*
X106560772Y-85131992D01*
X106555809Y-85126994D01*
X106490539Y-85085573D01*
X106417316Y-85039104D01*
X106417313Y-85039102D01*
X106411373Y-85035333D01*
X106404740Y-85032971D01*
X106256854Y-84980311D01*
X106256849Y-84980310D01*
X106250219Y-84977949D01*
X106243231Y-84977116D01*
X106243228Y-84977115D01*
X106127655Y-84963334D01*
X106080357Y-84957694D01*
X106073354Y-84958430D01*
X106073353Y-84958430D01*
X106028958Y-84963096D01*
X105910228Y-84975575D01*
X105900071Y-84979033D01*
X105754956Y-85028434D01*
X105754953Y-85028435D01*
X105748289Y-85030704D01*
X105602588Y-85120340D01*
X105597557Y-85125267D01*
X105597554Y-85125269D01*
X105590689Y-85131992D01*
X105480366Y-85240028D01*
X105476547Y-85245953D01*
X105476546Y-85245955D01*
X105471135Y-85254352D01*
X105387698Y-85383820D01*
X105385287Y-85390443D01*
X105385286Y-85390446D01*
X105331600Y-85537947D01*
X105331599Y-85537952D01*
X105329190Y-85544570D01*
X105307750Y-85714286D01*
X100508000Y-85714286D01*
X100508000Y-84064286D01*
X118632750Y-84064286D01*
X118649443Y-84234536D01*
X118703440Y-84396856D01*
X118707087Y-84402878D01*
X118707088Y-84402880D01*
X118788406Y-84537154D01*
X118788409Y-84537157D01*
X118792056Y-84543180D01*
X118910889Y-84666234D01*
X119054030Y-84759903D01*
X119060634Y-84762359D01*
X119060636Y-84762360D01*
X119207757Y-84817074D01*
X119207759Y-84817074D01*
X119214367Y-84819532D01*
X119293454Y-84830085D01*
X119376949Y-84841226D01*
X119376953Y-84841226D01*
X119383930Y-84842157D01*
X119390941Y-84841519D01*
X119390945Y-84841519D01*
X119547273Y-84827292D01*
X119547275Y-84827292D01*
X119554292Y-84826653D01*
X119560990Y-84824477D01*
X119560993Y-84824476D01*
X119710289Y-84775966D01*
X119710291Y-84775965D01*
X119716985Y-84773790D01*
X119863924Y-84686197D01*
X119987805Y-84568227D01*
X120001079Y-84548249D01*
X120078570Y-84431614D01*
X120082471Y-84425743D01*
X120143218Y-84265826D01*
X120167026Y-84096425D01*
X120167325Y-84075000D01*
X120148256Y-83905000D01*
X120091999Y-83743450D01*
X120001348Y-83598378D01*
X119988159Y-83585096D01*
X119885772Y-83481992D01*
X119880809Y-83476994D01*
X119815539Y-83435573D01*
X119742316Y-83389104D01*
X119742313Y-83389102D01*
X119736373Y-83385333D01*
X119729740Y-83382971D01*
X119581854Y-83330311D01*
X119581849Y-83330310D01*
X119575219Y-83327949D01*
X119568231Y-83327116D01*
X119568228Y-83327115D01*
X119452655Y-83313334D01*
X119405357Y-83307694D01*
X119398354Y-83308430D01*
X119398353Y-83308430D01*
X119353958Y-83313096D01*
X119235228Y-83325575D01*
X119225071Y-83329033D01*
X119079956Y-83378434D01*
X119079953Y-83378435D01*
X119073289Y-83380704D01*
X118927588Y-83470340D01*
X118922557Y-83475267D01*
X118922554Y-83475269D01*
X118915689Y-83481992D01*
X118805366Y-83590028D01*
X118801547Y-83595953D01*
X118801546Y-83595955D01*
X118796135Y-83604352D01*
X118712698Y-83733820D01*
X118710287Y-83740443D01*
X118710286Y-83740446D01*
X118656600Y-83887947D01*
X118656599Y-83887952D01*
X118654190Y-83894570D01*
X118632750Y-84064286D01*
X100508000Y-84064286D01*
X100508000Y-78514286D01*
X120082750Y-78514286D01*
X120099443Y-78684536D01*
X120153440Y-78846856D01*
X120157087Y-78852878D01*
X120157088Y-78852880D01*
X120238406Y-78987154D01*
X120238409Y-78987157D01*
X120242056Y-78993180D01*
X120360889Y-79116234D01*
X120504030Y-79209903D01*
X120510634Y-79212359D01*
X120510636Y-79212360D01*
X120657757Y-79267074D01*
X120657759Y-79267074D01*
X120664367Y-79269532D01*
X120743454Y-79280085D01*
X120826949Y-79291226D01*
X120826953Y-79291226D01*
X120833930Y-79292157D01*
X120840941Y-79291519D01*
X120840945Y-79291519D01*
X120997273Y-79277292D01*
X120997275Y-79277292D01*
X121004292Y-79276653D01*
X121010990Y-79274477D01*
X121010993Y-79274476D01*
X121160289Y-79225966D01*
X121160291Y-79225965D01*
X121166985Y-79223790D01*
X121313924Y-79136197D01*
X121437805Y-79018227D01*
X121451079Y-78998249D01*
X121528570Y-78881614D01*
X121532471Y-78875743D01*
X121582809Y-78743227D01*
X121590718Y-78722408D01*
X121590719Y-78722406D01*
X121593218Y-78715826D01*
X121617026Y-78546425D01*
X121617325Y-78525000D01*
X121598256Y-78355000D01*
X121570519Y-78275347D01*
X121557961Y-78239286D01*
X127182750Y-78239286D01*
X127199443Y-78409536D01*
X127253440Y-78571856D01*
X127257087Y-78577878D01*
X127257088Y-78577880D01*
X127338406Y-78712154D01*
X127338409Y-78712157D01*
X127342056Y-78718180D01*
X127460889Y-78841234D01*
X127604030Y-78934903D01*
X127610634Y-78937359D01*
X127610636Y-78937360D01*
X127757757Y-78992074D01*
X127757759Y-78992074D01*
X127764367Y-78994532D01*
X127843454Y-79005085D01*
X127926949Y-79016226D01*
X127926953Y-79016226D01*
X127933930Y-79017157D01*
X127940941Y-79016519D01*
X127940945Y-79016519D01*
X128097273Y-79002292D01*
X128097275Y-79002292D01*
X128104292Y-79001653D01*
X128110990Y-78999477D01*
X128110993Y-78999476D01*
X128260289Y-78950966D01*
X128260291Y-78950965D01*
X128266985Y-78948790D01*
X128389523Y-78875743D01*
X128407872Y-78864805D01*
X128407874Y-78864804D01*
X128413924Y-78861197D01*
X128537805Y-78743227D01*
X128551079Y-78723249D01*
X128628570Y-78606614D01*
X128632471Y-78600743D01*
X128693218Y-78440826D01*
X128705280Y-78355000D01*
X128716475Y-78275347D01*
X128716475Y-78275344D01*
X128717026Y-78271425D01*
X128717325Y-78250000D01*
X128698256Y-78080000D01*
X128687245Y-78048378D01*
X128644314Y-77925097D01*
X128644313Y-77925095D01*
X128641999Y-77918450D01*
X128634248Y-77906045D01*
X128555081Y-77779352D01*
X128551348Y-77773378D01*
X128538159Y-77760096D01*
X128435772Y-77656992D01*
X128430809Y-77651994D01*
X128310656Y-77575743D01*
X128292316Y-77564104D01*
X128292313Y-77564102D01*
X128286373Y-77560333D01*
X128279740Y-77557971D01*
X128131854Y-77505311D01*
X128131849Y-77505310D01*
X128125219Y-77502949D01*
X128118231Y-77502116D01*
X128118228Y-77502115D01*
X128002655Y-77488334D01*
X127955357Y-77482694D01*
X127948354Y-77483430D01*
X127948353Y-77483430D01*
X127903958Y-77488096D01*
X127785228Y-77500575D01*
X127775071Y-77504033D01*
X127629956Y-77553434D01*
X127629953Y-77553435D01*
X127623289Y-77555704D01*
X127477588Y-77645340D01*
X127472557Y-77650267D01*
X127472554Y-77650269D01*
X127430431Y-77691519D01*
X127355366Y-77765028D01*
X127351547Y-77770953D01*
X127351546Y-77770955D01*
X127314503Y-77828434D01*
X127262698Y-77908820D01*
X127260287Y-77915443D01*
X127260286Y-77915446D01*
X127206600Y-78062947D01*
X127206599Y-78062952D01*
X127204190Y-78069570D01*
X127182750Y-78239286D01*
X121557961Y-78239286D01*
X121544314Y-78200097D01*
X121544313Y-78200095D01*
X121541999Y-78193450D01*
X121451348Y-78048378D01*
X121438159Y-78035096D01*
X121335772Y-77931992D01*
X121330809Y-77926994D01*
X121265539Y-77885573D01*
X121192316Y-77839104D01*
X121192313Y-77839102D01*
X121186373Y-77835333D01*
X121179740Y-77832971D01*
X121031854Y-77780311D01*
X121031849Y-77780310D01*
X121025219Y-77777949D01*
X121018231Y-77777116D01*
X121018228Y-77777115D01*
X120902655Y-77763334D01*
X120855357Y-77757694D01*
X120848354Y-77758430D01*
X120848353Y-77758430D01*
X120803958Y-77763096D01*
X120685228Y-77775575D01*
X120675071Y-77779033D01*
X120529956Y-77828434D01*
X120529953Y-77828435D01*
X120523289Y-77830704D01*
X120377588Y-77920340D01*
X120372557Y-77925267D01*
X120372554Y-77925269D01*
X120326403Y-77970464D01*
X120255366Y-78040028D01*
X120251547Y-78045953D01*
X120251546Y-78045955D01*
X120236327Y-78069570D01*
X120162698Y-78183820D01*
X120160287Y-78190443D01*
X120160286Y-78190446D01*
X120106600Y-78337947D01*
X120106599Y-78337952D01*
X120104190Y-78344570D01*
X120082750Y-78514286D01*
X100508000Y-78514286D01*
X100508000Y-77214286D01*
X105232750Y-77214286D01*
X105249443Y-77384536D01*
X105303440Y-77546856D01*
X105307087Y-77552878D01*
X105307088Y-77552880D01*
X105388406Y-77687154D01*
X105388409Y-77687157D01*
X105392056Y-77693180D01*
X105510889Y-77816234D01*
X105541396Y-77836197D01*
X105643318Y-77902893D01*
X105654030Y-77909903D01*
X105660634Y-77912359D01*
X105660636Y-77912360D01*
X105807757Y-77967074D01*
X105807759Y-77967074D01*
X105814367Y-77969532D01*
X105893454Y-77980085D01*
X105976949Y-77991226D01*
X105976953Y-77991226D01*
X105983930Y-77992157D01*
X105990941Y-77991519D01*
X105990945Y-77991519D01*
X106147273Y-77977292D01*
X106147275Y-77977292D01*
X106154292Y-77976653D01*
X106160990Y-77974477D01*
X106160993Y-77974476D01*
X106310289Y-77925966D01*
X106310291Y-77925965D01*
X106316985Y-77923790D01*
X106463924Y-77836197D01*
X106587805Y-77718227D01*
X106601079Y-77698249D01*
X106650549Y-77623790D01*
X106682471Y-77575743D01*
X106743218Y-77415826D01*
X106748601Y-77377527D01*
X106766475Y-77250347D01*
X106766475Y-77250344D01*
X106767026Y-77246425D01*
X106767325Y-77225000D01*
X106748256Y-77055000D01*
X106711813Y-76950347D01*
X106699255Y-76914286D01*
X110457750Y-76914286D01*
X110474443Y-77084536D01*
X110528440Y-77246856D01*
X110532087Y-77252878D01*
X110532088Y-77252880D01*
X110613406Y-77387154D01*
X110613409Y-77387157D01*
X110617056Y-77393180D01*
X110735889Y-77516234D01*
X110879030Y-77609903D01*
X110885634Y-77612359D01*
X110885636Y-77612360D01*
X111032757Y-77667074D01*
X111032759Y-77667074D01*
X111039367Y-77669532D01*
X111118454Y-77680085D01*
X111201949Y-77691226D01*
X111201953Y-77691226D01*
X111208930Y-77692157D01*
X111215941Y-77691519D01*
X111215945Y-77691519D01*
X111372273Y-77677292D01*
X111372275Y-77677292D01*
X111379292Y-77676653D01*
X111385990Y-77674477D01*
X111385993Y-77674476D01*
X111535289Y-77625966D01*
X111535291Y-77625965D01*
X111541985Y-77623790D01*
X111622585Y-77575743D01*
X111682872Y-77539805D01*
X111682874Y-77539804D01*
X111688924Y-77536197D01*
X111812805Y-77418227D01*
X111819033Y-77408854D01*
X111903570Y-77281614D01*
X111907471Y-77275743D01*
X111968218Y-77115826D01*
X111977701Y-77048351D01*
X111991475Y-76950347D01*
X111991475Y-76950344D01*
X111992026Y-76946425D01*
X111992325Y-76925000D01*
X111973256Y-76755000D01*
X111970107Y-76745955D01*
X111919314Y-76600097D01*
X111919313Y-76600095D01*
X111916999Y-76593450D01*
X111880684Y-76535333D01*
X111830081Y-76454352D01*
X111826348Y-76448378D01*
X111813159Y-76435096D01*
X111710772Y-76331992D01*
X111705809Y-76326994D01*
X111640539Y-76285573D01*
X111567316Y-76239104D01*
X111567313Y-76239102D01*
X111561373Y-76235333D01*
X111554740Y-76232971D01*
X111406854Y-76180311D01*
X111406849Y-76180310D01*
X111400219Y-76177949D01*
X111393231Y-76177116D01*
X111393228Y-76177115D01*
X111277655Y-76163334D01*
X111230357Y-76157694D01*
X111223354Y-76158430D01*
X111223353Y-76158430D01*
X111178958Y-76163096D01*
X111060228Y-76175575D01*
X111050071Y-76179033D01*
X110904956Y-76228434D01*
X110904953Y-76228435D01*
X110898289Y-76230704D01*
X110752588Y-76320340D01*
X110747557Y-76325267D01*
X110747554Y-76325269D01*
X110740689Y-76331992D01*
X110630366Y-76440028D01*
X110626547Y-76445953D01*
X110626546Y-76445955D01*
X110605927Y-76477949D01*
X110537698Y-76583820D01*
X110535287Y-76590443D01*
X110535286Y-76590446D01*
X110481600Y-76737947D01*
X110481599Y-76737952D01*
X110479190Y-76744570D01*
X110457750Y-76914286D01*
X106699255Y-76914286D01*
X106694314Y-76900097D01*
X106694313Y-76900095D01*
X106691999Y-76893450D01*
X106601348Y-76748378D01*
X106588159Y-76735096D01*
X106485772Y-76631992D01*
X106480809Y-76626994D01*
X106412777Y-76583820D01*
X106342316Y-76539104D01*
X106342313Y-76539102D01*
X106336373Y-76535333D01*
X106329740Y-76532971D01*
X106181854Y-76480311D01*
X106181849Y-76480310D01*
X106175219Y-76477949D01*
X106168231Y-76477116D01*
X106168228Y-76477115D01*
X106052655Y-76463334D01*
X106005357Y-76457694D01*
X105998354Y-76458430D01*
X105998353Y-76458430D01*
X105953958Y-76463096D01*
X105835228Y-76475575D01*
X105825071Y-76479033D01*
X105679956Y-76528434D01*
X105679953Y-76528435D01*
X105673289Y-76530704D01*
X105527588Y-76620340D01*
X105522557Y-76625267D01*
X105522554Y-76625269D01*
X105515689Y-76631992D01*
X105405366Y-76740028D01*
X105401547Y-76745953D01*
X105401546Y-76745955D01*
X105397933Y-76751562D01*
X105312698Y-76883820D01*
X105310287Y-76890443D01*
X105310286Y-76890446D01*
X105256600Y-77037947D01*
X105256599Y-77037952D01*
X105254190Y-77044570D01*
X105232750Y-77214286D01*
X100508000Y-77214286D01*
X100508000Y-72160774D01*
X101323102Y-72160774D01*
X101331751Y-72391158D01*
X101379093Y-72616791D01*
X101463776Y-72831221D01*
X101583377Y-73028317D01*
X101586874Y-73032347D01*
X101693274Y-73154962D01*
X101734477Y-73202445D01*
X101738608Y-73205832D01*
X101908627Y-73345240D01*
X101908633Y-73345244D01*
X101912755Y-73348624D01*
X101917391Y-73351263D01*
X101917394Y-73351265D01*
X102026422Y-73413327D01*
X102113114Y-73462675D01*
X102329825Y-73541337D01*
X102335074Y-73542286D01*
X102335077Y-73542287D01*
X102552608Y-73581623D01*
X102552615Y-73581624D01*
X102556692Y-73582361D01*
X102574414Y-73583197D01*
X102579356Y-73583430D01*
X102579363Y-73583430D01*
X102580844Y-73583500D01*
X102742890Y-73583500D01*
X102817904Y-73577135D01*
X102909409Y-73569371D01*
X102909413Y-73569370D01*
X102914720Y-73568920D01*
X102919875Y-73567582D01*
X102919881Y-73567581D01*
X103132703Y-73512343D01*
X103132707Y-73512342D01*
X103137872Y-73511001D01*
X103142738Y-73508809D01*
X103142741Y-73508808D01*
X103343202Y-73418507D01*
X103348075Y-73416312D01*
X103539319Y-73287559D01*
X103706135Y-73128424D01*
X103843754Y-72943458D01*
X103876723Y-72878614D01*
X103880037Y-72872095D01*
X108257001Y-72872095D01*
X108257338Y-72878614D01*
X108267257Y-72974206D01*
X108270149Y-72987600D01*
X108321588Y-73141784D01*
X108327761Y-73154962D01*
X108413063Y-73292807D01*
X108422099Y-73304208D01*
X108536829Y-73418739D01*
X108548240Y-73427751D01*
X108686243Y-73512816D01*
X108699424Y-73518963D01*
X108853710Y-73570138D01*
X108867086Y-73573005D01*
X108961438Y-73582672D01*
X108967854Y-73583000D01*
X109592885Y-73583000D01*
X109608124Y-73578525D01*
X109609329Y-73577135D01*
X109611000Y-73569452D01*
X109611000Y-73564884D01*
X110119000Y-73564884D01*
X110123475Y-73580123D01*
X110124865Y-73581328D01*
X110132548Y-73582999D01*
X110762095Y-73582999D01*
X110768614Y-73582662D01*
X110864206Y-73572743D01*
X110877600Y-73569851D01*
X111031784Y-73518412D01*
X111044962Y-73512239D01*
X111182807Y-73426937D01*
X111194208Y-73417901D01*
X111308739Y-73303171D01*
X111317751Y-73291760D01*
X111402816Y-73153757D01*
X111408963Y-73140576D01*
X111460138Y-72986290D01*
X111463005Y-72972914D01*
X111472672Y-72878562D01*
X111473000Y-72872146D01*
X111473000Y-72497115D01*
X111468525Y-72481876D01*
X111467135Y-72480671D01*
X111459452Y-72479000D01*
X110137115Y-72479000D01*
X110121876Y-72483475D01*
X110120671Y-72484865D01*
X110119000Y-72492548D01*
X110119000Y-73564884D01*
X109611000Y-73564884D01*
X109611000Y-72497115D01*
X109606525Y-72481876D01*
X109605135Y-72480671D01*
X109597452Y-72479000D01*
X108275116Y-72479000D01*
X108259877Y-72483475D01*
X108258672Y-72484865D01*
X108257001Y-72492548D01*
X108257001Y-72872095D01*
X103880037Y-72872095D01*
X103945822Y-72742704D01*
X103948240Y-72737949D01*
X103984321Y-72621752D01*
X104015024Y-72522871D01*
X104016607Y-72517773D01*
X104021746Y-72479000D01*
X104046198Y-72294511D01*
X104046198Y-72294506D01*
X104046898Y-72289226D01*
X104038249Y-72058842D01*
X103990907Y-71833209D01*
X103906224Y-71618779D01*
X103786623Y-71421683D01*
X103699755Y-71321576D01*
X103639023Y-71251588D01*
X103639021Y-71251586D01*
X103635523Y-71247555D01*
X103593970Y-71213484D01*
X103461373Y-71104760D01*
X103461367Y-71104756D01*
X103457245Y-71101376D01*
X103452609Y-71098737D01*
X103452606Y-71098735D01*
X103261529Y-70989968D01*
X103256886Y-70987325D01*
X103040175Y-70908663D01*
X103034926Y-70907714D01*
X103034923Y-70907713D01*
X102817392Y-70868377D01*
X102817385Y-70868376D01*
X102813308Y-70867639D01*
X102795586Y-70866803D01*
X102790644Y-70866570D01*
X102790637Y-70866570D01*
X102789156Y-70866500D01*
X102627110Y-70866500D01*
X102560191Y-70872178D01*
X102460591Y-70880629D01*
X102460587Y-70880630D01*
X102455280Y-70881080D01*
X102450125Y-70882418D01*
X102450119Y-70882419D01*
X102237297Y-70937657D01*
X102237293Y-70937658D01*
X102232128Y-70938999D01*
X102227262Y-70941191D01*
X102227259Y-70941192D01*
X102118980Y-70989968D01*
X102021925Y-71033688D01*
X101830681Y-71162441D01*
X101663865Y-71321576D01*
X101526246Y-71506542D01*
X101523830Y-71511293D01*
X101523828Y-71511297D01*
X101493251Y-71571438D01*
X101421760Y-71712051D01*
X101420178Y-71717145D01*
X101420177Y-71717148D01*
X101358115Y-71917020D01*
X101353393Y-71932227D01*
X101352692Y-71937516D01*
X101337304Y-72053623D01*
X101323102Y-72160774D01*
X100508000Y-72160774D01*
X100508000Y-69660774D01*
X108253102Y-69660774D01*
X108261751Y-69891158D01*
X108309093Y-70116791D01*
X108311051Y-70121750D01*
X108311052Y-70121752D01*
X108329773Y-70169155D01*
X108393776Y-70331221D01*
X108396543Y-70335780D01*
X108396544Y-70335783D01*
X108486045Y-70483276D01*
X108513377Y-70528317D01*
X108516874Y-70532347D01*
X108603438Y-70632103D01*
X108664477Y-70702445D01*
X108668608Y-70705832D01*
X108700529Y-70732006D01*
X108740524Y-70790666D01*
X108742455Y-70861636D01*
X108705710Y-70922384D01*
X108686941Y-70936584D01*
X108547193Y-71023063D01*
X108535792Y-71032099D01*
X108421261Y-71146829D01*
X108412249Y-71158240D01*
X108327184Y-71296243D01*
X108321037Y-71309424D01*
X108269862Y-71463710D01*
X108266995Y-71477086D01*
X108257328Y-71571438D01*
X108257000Y-71577855D01*
X108257000Y-71952885D01*
X108261475Y-71968124D01*
X108262865Y-71969329D01*
X108270548Y-71971000D01*
X111454884Y-71971000D01*
X111470123Y-71966525D01*
X111471328Y-71965135D01*
X111472999Y-71957452D01*
X111472999Y-71577905D01*
X111472662Y-71571386D01*
X111462743Y-71475794D01*
X111459851Y-71462400D01*
X111408412Y-71308216D01*
X111402239Y-71295038D01*
X111316937Y-71157193D01*
X111307901Y-71145792D01*
X111193171Y-71031261D01*
X111181757Y-71022247D01*
X111042287Y-70936277D01*
X110994793Y-70883505D01*
X110983369Y-70813434D01*
X111011643Y-70748310D01*
X111021430Y-70737847D01*
X111054991Y-70705832D01*
X111136135Y-70628424D01*
X111141058Y-70621808D01*
X111142043Y-70621065D01*
X111142854Y-70620149D01*
X111143041Y-70620314D01*
X111197766Y-70579095D01*
X111258811Y-70572127D01*
X111401948Y-70591226D01*
X111401953Y-70591226D01*
X111408930Y-70592157D01*
X111415941Y-70591519D01*
X111415945Y-70591519D01*
X111572273Y-70577292D01*
X111572275Y-70577292D01*
X111579292Y-70576653D01*
X111585990Y-70574477D01*
X111585993Y-70574476D01*
X111735289Y-70525966D01*
X111735291Y-70525965D01*
X111741985Y-70523790D01*
X111888924Y-70436197D01*
X112012805Y-70318227D01*
X112107471Y-70175743D01*
X112168218Y-70015826D01*
X112185739Y-69891158D01*
X112191475Y-69850347D01*
X112191475Y-69850344D01*
X112192026Y-69846425D01*
X112192325Y-69825000D01*
X112173256Y-69655000D01*
X112116999Y-69493450D01*
X112026348Y-69348378D01*
X111905809Y-69226994D01*
X111833404Y-69181045D01*
X111767316Y-69139104D01*
X111767313Y-69139102D01*
X111761373Y-69135333D01*
X111754740Y-69132971D01*
X111606854Y-69080311D01*
X111606849Y-69080310D01*
X111600219Y-69077949D01*
X111593231Y-69077116D01*
X111593228Y-69077115D01*
X111469042Y-69062307D01*
X111430357Y-69057694D01*
X111386470Y-69062307D01*
X111316633Y-69049535D01*
X111265581Y-69002363D01*
X111216623Y-68921683D01*
X111129755Y-68821576D01*
X111069023Y-68751588D01*
X111069021Y-68751586D01*
X111065523Y-68747555D01*
X111023970Y-68713484D01*
X110891373Y-68604760D01*
X110891367Y-68604756D01*
X110887245Y-68601376D01*
X110855750Y-68583448D01*
X110806445Y-68532368D01*
X110797868Y-68489286D01*
X114607750Y-68489286D01*
X114624443Y-68659536D01*
X114678440Y-68821856D01*
X114682087Y-68827878D01*
X114682088Y-68827880D01*
X114763406Y-68962154D01*
X114763409Y-68962157D01*
X114767056Y-68968180D01*
X114885889Y-69091234D01*
X115029030Y-69184903D01*
X115035634Y-69187359D01*
X115035636Y-69187360D01*
X115182757Y-69242074D01*
X115182759Y-69242074D01*
X115189367Y-69244532D01*
X115268454Y-69255085D01*
X115351949Y-69266226D01*
X115351953Y-69266226D01*
X115358930Y-69267157D01*
X115365941Y-69266519D01*
X115365945Y-69266519D01*
X115522273Y-69252292D01*
X115522275Y-69252292D01*
X115529292Y-69251653D01*
X115535990Y-69249477D01*
X115535993Y-69249476D01*
X115685289Y-69200966D01*
X115685291Y-69200965D01*
X115691985Y-69198790D01*
X115727369Y-69177697D01*
X115832872Y-69114805D01*
X115832874Y-69114804D01*
X115838924Y-69111197D01*
X115962805Y-68993227D01*
X115976079Y-68973249D01*
X116053570Y-68856614D01*
X116057471Y-68850743D01*
X116118218Y-68690826D01*
X116133312Y-68583430D01*
X116141475Y-68525347D01*
X116141475Y-68525344D01*
X116142026Y-68521425D01*
X116142325Y-68500000D01*
X116123256Y-68330000D01*
X116109515Y-68290539D01*
X116069314Y-68175097D01*
X116069313Y-68175095D01*
X116066999Y-68168450D01*
X115976348Y-68023378D01*
X115963159Y-68010096D01*
X115917024Y-67963638D01*
X115855809Y-67901994D01*
X115790539Y-67860573D01*
X115717316Y-67814104D01*
X115717313Y-67814102D01*
X115711373Y-67810333D01*
X115704740Y-67807971D01*
X115556854Y-67755311D01*
X115556849Y-67755310D01*
X115550219Y-67752949D01*
X115543231Y-67752116D01*
X115543228Y-67752115D01*
X115424426Y-67737949D01*
X115380357Y-67732694D01*
X115373354Y-67733430D01*
X115373353Y-67733430D01*
X115330358Y-67737949D01*
X115210228Y-67750575D01*
X115200071Y-67754033D01*
X115054956Y-67803434D01*
X115054953Y-67803435D01*
X115048289Y-67805704D01*
X114902588Y-67895340D01*
X114897557Y-67900267D01*
X114897554Y-67900269D01*
X114838573Y-67958028D01*
X114780366Y-68015028D01*
X114776547Y-68020953D01*
X114776546Y-68020955D01*
X114734032Y-68086924D01*
X114687698Y-68158820D01*
X114685287Y-68165443D01*
X114685286Y-68165446D01*
X114631600Y-68312947D01*
X114631599Y-68312952D01*
X114629190Y-68319570D01*
X114607750Y-68489286D01*
X110797868Y-68489286D01*
X110792583Y-68462738D01*
X110818566Y-68396667D01*
X110847716Y-68369427D01*
X110883642Y-68345240D01*
X110969319Y-68287559D01*
X111136135Y-68128424D01*
X111273754Y-67943458D01*
X111292295Y-67906992D01*
X111342639Y-67807971D01*
X111378240Y-67737949D01*
X111414321Y-67621752D01*
X111445024Y-67522871D01*
X111446607Y-67517773D01*
X111447308Y-67512484D01*
X111476198Y-67294511D01*
X111476198Y-67294506D01*
X111476898Y-67289226D01*
X111472681Y-67176908D01*
X111490113Y-67108086D01*
X111541986Y-67059613D01*
X111611832Y-67046880D01*
X111652388Y-67058828D01*
X111654030Y-67059903D01*
X111665512Y-67064173D01*
X111807757Y-67117074D01*
X111807759Y-67117074D01*
X111814367Y-67119532D01*
X111893454Y-67130085D01*
X111976949Y-67141226D01*
X111976953Y-67141226D01*
X111983930Y-67142157D01*
X111990941Y-67141519D01*
X111990945Y-67141519D01*
X112147273Y-67127292D01*
X112147275Y-67127292D01*
X112154292Y-67126653D01*
X112160990Y-67124477D01*
X112160993Y-67124476D01*
X112310289Y-67075966D01*
X112310291Y-67075965D01*
X112316985Y-67073790D01*
X112463924Y-66986197D01*
X112587805Y-66868227D01*
X112607604Y-66838428D01*
X112678570Y-66731614D01*
X112682471Y-66725743D01*
X112743218Y-66565826D01*
X112757467Y-66464443D01*
X112766475Y-66400347D01*
X112766475Y-66400344D01*
X112767026Y-66396425D01*
X112767325Y-66375000D01*
X112748256Y-66205000D01*
X112742145Y-66187449D01*
X112694314Y-66050097D01*
X112694313Y-66050095D01*
X112691999Y-66043450D01*
X112684528Y-66031493D01*
X112605081Y-65904352D01*
X112601348Y-65898378D01*
X112588159Y-65885096D01*
X112485772Y-65781992D01*
X112480809Y-65776994D01*
X112415539Y-65735573D01*
X112342316Y-65689104D01*
X112342313Y-65689102D01*
X112336373Y-65685333D01*
X112329740Y-65682971D01*
X112181854Y-65630311D01*
X112181849Y-65630310D01*
X112175219Y-65627949D01*
X112168231Y-65627116D01*
X112168228Y-65627115D01*
X112052655Y-65613334D01*
X112005357Y-65607694D01*
X111998354Y-65608430D01*
X111998353Y-65608430D01*
X111953958Y-65613096D01*
X111835228Y-65625575D01*
X111825071Y-65629033D01*
X111679956Y-65678434D01*
X111679953Y-65678435D01*
X111673289Y-65680704D01*
X111527588Y-65770340D01*
X111522557Y-65775267D01*
X111522554Y-65775269D01*
X111515689Y-65781992D01*
X111405366Y-65890028D01*
X111401547Y-65895953D01*
X111401546Y-65895955D01*
X111392183Y-65910484D01*
X111312698Y-66033820D01*
X111306774Y-66050097D01*
X111256782Y-66187449D01*
X111214688Y-66244620D01*
X111148367Y-66269958D01*
X111078875Y-66255417D01*
X111058490Y-66241788D01*
X110891373Y-66104760D01*
X110891367Y-66104756D01*
X110887245Y-66101376D01*
X110882609Y-66098737D01*
X110882606Y-66098735D01*
X110691529Y-65989968D01*
X110686886Y-65987325D01*
X110470175Y-65908663D01*
X110464926Y-65907714D01*
X110464923Y-65907713D01*
X110247392Y-65868377D01*
X110247385Y-65868376D01*
X110243308Y-65867639D01*
X110225586Y-65866803D01*
X110220644Y-65866570D01*
X110220637Y-65866570D01*
X110219156Y-65866500D01*
X109557110Y-65866500D01*
X109490191Y-65872178D01*
X109390591Y-65880629D01*
X109390587Y-65880630D01*
X109385280Y-65881080D01*
X109380125Y-65882418D01*
X109380119Y-65882419D01*
X109167297Y-65937657D01*
X109167293Y-65937658D01*
X109162128Y-65938999D01*
X109157262Y-65941191D01*
X109157259Y-65941192D01*
X109048980Y-65989968D01*
X108951925Y-66033688D01*
X108760681Y-66162441D01*
X108593865Y-66321576D01*
X108456246Y-66506542D01*
X108453830Y-66511293D01*
X108453828Y-66511297D01*
X108422758Y-66572408D01*
X108351760Y-66712051D01*
X108350178Y-66717145D01*
X108350177Y-66717148D01*
X108305089Y-66862356D01*
X108283393Y-66932227D01*
X108282692Y-66937516D01*
X108255693Y-67141226D01*
X108253102Y-67160774D01*
X108261751Y-67391158D01*
X108309093Y-67616791D01*
X108311051Y-67621750D01*
X108311052Y-67621752D01*
X108363798Y-67755311D01*
X108393776Y-67831221D01*
X108396543Y-67835780D01*
X108396544Y-67835783D01*
X108432684Y-67895340D01*
X108513377Y-68028317D01*
X108516874Y-68032347D01*
X108640746Y-68175097D01*
X108664477Y-68202445D01*
X108668608Y-68205832D01*
X108838627Y-68345240D01*
X108838633Y-68345244D01*
X108842755Y-68348624D01*
X108874250Y-68366552D01*
X108923555Y-68417632D01*
X108937417Y-68487262D01*
X108911434Y-68553333D01*
X108882284Y-68580573D01*
X108760681Y-68662441D01*
X108756824Y-68666120D01*
X108756822Y-68666122D01*
X108738234Y-68683854D01*
X108593865Y-68821576D01*
X108456246Y-69006542D01*
X108453830Y-69011293D01*
X108453828Y-69011297D01*
X108423648Y-69070657D01*
X108351760Y-69212051D01*
X108350178Y-69217145D01*
X108350177Y-69217148D01*
X108334938Y-69266226D01*
X108283393Y-69432227D01*
X108282692Y-69437516D01*
X108254749Y-69648351D01*
X108253102Y-69660774D01*
X100508000Y-69660774D01*
X100508000Y-67160774D01*
X101323102Y-67160774D01*
X101331751Y-67391158D01*
X101379093Y-67616791D01*
X101381051Y-67621750D01*
X101381052Y-67621752D01*
X101433798Y-67755311D01*
X101463776Y-67831221D01*
X101466543Y-67835780D01*
X101466544Y-67835783D01*
X101502684Y-67895340D01*
X101583377Y-68028317D01*
X101586874Y-68032347D01*
X101710746Y-68175097D01*
X101734477Y-68202445D01*
X101738608Y-68205832D01*
X101908627Y-68345240D01*
X101908633Y-68345244D01*
X101912755Y-68348624D01*
X101917391Y-68351263D01*
X101917394Y-68351265D01*
X102026422Y-68413327D01*
X102113114Y-68462675D01*
X102329825Y-68541337D01*
X102335074Y-68542286D01*
X102335077Y-68542287D01*
X102552608Y-68581623D01*
X102552615Y-68581624D01*
X102556692Y-68582361D01*
X102574414Y-68583197D01*
X102579356Y-68583430D01*
X102579363Y-68583430D01*
X102580844Y-68583500D01*
X102742890Y-68583500D01*
X102809809Y-68577822D01*
X102909409Y-68569371D01*
X102909413Y-68569370D01*
X102914720Y-68568920D01*
X102919875Y-68567582D01*
X102919881Y-68567581D01*
X103132703Y-68512343D01*
X103132707Y-68512342D01*
X103137872Y-68511001D01*
X103142738Y-68508809D01*
X103142741Y-68508808D01*
X103343202Y-68418507D01*
X103348075Y-68416312D01*
X103539319Y-68287559D01*
X103706135Y-68128424D01*
X103843754Y-67943458D01*
X103862295Y-67906992D01*
X103912639Y-67807971D01*
X103948240Y-67737949D01*
X103984321Y-67621752D01*
X104015024Y-67522871D01*
X104016607Y-67517773D01*
X104017308Y-67512484D01*
X104046198Y-67294511D01*
X104046198Y-67294506D01*
X104046898Y-67289226D01*
X104038249Y-67058842D01*
X103990907Y-66833209D01*
X103950785Y-66731614D01*
X103908185Y-66623744D01*
X103908184Y-66623742D01*
X103906224Y-66618779D01*
X103878086Y-66572408D01*
X103789390Y-66426243D01*
X103786623Y-66421683D01*
X103699755Y-66321576D01*
X103639023Y-66251588D01*
X103639021Y-66251586D01*
X103635523Y-66247555D01*
X103592158Y-66211998D01*
X103461373Y-66104760D01*
X103461367Y-66104756D01*
X103457245Y-66101376D01*
X103452609Y-66098737D01*
X103452606Y-66098735D01*
X103261529Y-65989968D01*
X103256886Y-65987325D01*
X103040175Y-65908663D01*
X103034926Y-65907714D01*
X103034923Y-65907713D01*
X102817392Y-65868377D01*
X102817385Y-65868376D01*
X102813308Y-65867639D01*
X102795586Y-65866803D01*
X102790644Y-65866570D01*
X102790637Y-65866570D01*
X102789156Y-65866500D01*
X102627110Y-65866500D01*
X102560191Y-65872178D01*
X102460591Y-65880629D01*
X102460587Y-65880630D01*
X102455280Y-65881080D01*
X102450125Y-65882418D01*
X102450119Y-65882419D01*
X102237297Y-65937657D01*
X102237293Y-65937658D01*
X102232128Y-65938999D01*
X102227262Y-65941191D01*
X102227259Y-65941192D01*
X102118980Y-65989968D01*
X102021925Y-66033688D01*
X101830681Y-66162441D01*
X101663865Y-66321576D01*
X101526246Y-66506542D01*
X101523830Y-66511293D01*
X101523828Y-66511297D01*
X101492758Y-66572408D01*
X101421760Y-66712051D01*
X101420178Y-66717145D01*
X101420177Y-66717148D01*
X101375089Y-66862356D01*
X101353393Y-66932227D01*
X101352692Y-66937516D01*
X101325693Y-67141226D01*
X101323102Y-67160774D01*
X100508000Y-67160774D01*
X100508000Y-62339286D01*
X105232750Y-62339286D01*
X105249443Y-62509536D01*
X105303440Y-62671856D01*
X105307087Y-62677878D01*
X105307088Y-62677880D01*
X105388406Y-62812154D01*
X105388409Y-62812157D01*
X105392056Y-62818180D01*
X105510889Y-62941234D01*
X105654030Y-63034903D01*
X105660634Y-63037359D01*
X105660636Y-63037360D01*
X105807757Y-63092074D01*
X105807759Y-63092074D01*
X105814367Y-63094532D01*
X105893454Y-63105085D01*
X105976949Y-63116226D01*
X105976953Y-63116226D01*
X105983930Y-63117157D01*
X105990941Y-63116519D01*
X105990945Y-63116519D01*
X106147273Y-63102292D01*
X106147275Y-63102292D01*
X106154292Y-63101653D01*
X106160990Y-63099477D01*
X106160993Y-63099476D01*
X106310289Y-63050966D01*
X106310291Y-63050965D01*
X106316985Y-63048790D01*
X106463924Y-62961197D01*
X106587805Y-62843227D01*
X106601079Y-62823249D01*
X106678570Y-62706614D01*
X106682471Y-62700743D01*
X106743218Y-62540826D01*
X106767026Y-62371425D01*
X106767325Y-62350000D01*
X106748256Y-62180000D01*
X106691999Y-62018450D01*
X106601348Y-61873378D01*
X106588159Y-61860096D01*
X106485772Y-61756992D01*
X106480809Y-61751994D01*
X106415539Y-61710573D01*
X106342316Y-61664104D01*
X106342313Y-61664102D01*
X106336373Y-61660333D01*
X106329740Y-61657971D01*
X106181854Y-61605311D01*
X106181849Y-61605310D01*
X106175219Y-61602949D01*
X106168231Y-61602116D01*
X106168228Y-61602115D01*
X106052655Y-61588334D01*
X106005357Y-61582694D01*
X105998354Y-61583430D01*
X105998353Y-61583430D01*
X105953958Y-61588096D01*
X105835228Y-61600575D01*
X105825071Y-61604033D01*
X105679956Y-61653434D01*
X105679953Y-61653435D01*
X105673289Y-61655704D01*
X105527588Y-61745340D01*
X105522557Y-61750267D01*
X105522554Y-61750269D01*
X105515689Y-61756992D01*
X105405366Y-61865028D01*
X105401547Y-61870953D01*
X105401546Y-61870955D01*
X105396135Y-61879352D01*
X105312698Y-62008820D01*
X105310287Y-62015443D01*
X105310286Y-62015446D01*
X105256600Y-62162947D01*
X105256599Y-62162952D01*
X105254190Y-62169570D01*
X105232750Y-62339286D01*
X100508000Y-62339286D01*
X100508000Y-58039286D01*
X126207750Y-58039286D01*
X126224443Y-58209536D01*
X126278440Y-58371856D01*
X126282087Y-58377878D01*
X126282088Y-58377880D01*
X126363406Y-58512154D01*
X126363409Y-58512157D01*
X126367056Y-58518180D01*
X126485889Y-58641234D01*
X126629030Y-58734903D01*
X126635634Y-58737359D01*
X126635636Y-58737360D01*
X126782757Y-58792074D01*
X126782759Y-58792074D01*
X126789367Y-58794532D01*
X126868454Y-58805085D01*
X126951949Y-58816226D01*
X126951953Y-58816226D01*
X126958930Y-58817157D01*
X126965941Y-58816519D01*
X126965945Y-58816519D01*
X127122273Y-58802292D01*
X127122275Y-58802292D01*
X127129292Y-58801653D01*
X127135990Y-58799477D01*
X127135993Y-58799476D01*
X127285289Y-58750966D01*
X127285291Y-58750965D01*
X127291985Y-58748790D01*
X127438924Y-58661197D01*
X127562805Y-58543227D01*
X127576079Y-58523249D01*
X127653570Y-58406614D01*
X127657471Y-58400743D01*
X127718218Y-58240826D01*
X127742026Y-58071425D01*
X127742325Y-58050000D01*
X127723256Y-57880000D01*
X127666999Y-57718450D01*
X127576348Y-57573378D01*
X127563159Y-57560096D01*
X127460772Y-57456992D01*
X127455809Y-57451994D01*
X127390539Y-57410573D01*
X127317316Y-57364104D01*
X127317313Y-57364102D01*
X127311373Y-57360333D01*
X127304740Y-57357971D01*
X127156854Y-57305311D01*
X127156849Y-57305310D01*
X127150219Y-57302949D01*
X127143231Y-57302116D01*
X127143228Y-57302115D01*
X127027655Y-57288334D01*
X126980357Y-57282694D01*
X126973354Y-57283430D01*
X126973353Y-57283430D01*
X126928958Y-57288096D01*
X126810228Y-57300575D01*
X126800071Y-57304033D01*
X126654956Y-57353434D01*
X126654953Y-57353435D01*
X126648289Y-57355704D01*
X126502588Y-57445340D01*
X126497557Y-57450267D01*
X126497554Y-57450269D01*
X126490689Y-57456992D01*
X126380366Y-57565028D01*
X126376547Y-57570953D01*
X126376546Y-57570955D01*
X126371135Y-57579352D01*
X126287698Y-57708820D01*
X126285287Y-57715443D01*
X126285286Y-57715446D01*
X126231600Y-57862947D01*
X126231599Y-57862952D01*
X126229190Y-57869570D01*
X126207750Y-58039286D01*
X100508000Y-58039286D01*
X100508000Y-55064286D01*
X111732750Y-55064286D01*
X111749443Y-55234536D01*
X111803440Y-55396856D01*
X111807087Y-55402878D01*
X111807088Y-55402880D01*
X111888406Y-55537154D01*
X111888409Y-55537157D01*
X111892056Y-55543180D01*
X112010889Y-55666234D01*
X112154030Y-55759903D01*
X112160634Y-55762359D01*
X112160636Y-55762360D01*
X112307757Y-55817074D01*
X112307759Y-55817074D01*
X112314367Y-55819532D01*
X112393454Y-55830085D01*
X112476949Y-55841226D01*
X112476953Y-55841226D01*
X112483930Y-55842157D01*
X112490941Y-55841519D01*
X112490945Y-55841519D01*
X112647273Y-55827292D01*
X112647275Y-55827292D01*
X112654292Y-55826653D01*
X112660990Y-55824477D01*
X112660993Y-55824476D01*
X112810289Y-55775966D01*
X112810291Y-55775965D01*
X112816985Y-55773790D01*
X112963924Y-55686197D01*
X113087805Y-55568227D01*
X113101079Y-55548249D01*
X113178570Y-55431614D01*
X113182471Y-55425743D01*
X113243218Y-55265826D01*
X113267026Y-55096425D01*
X113267325Y-55075000D01*
X113266123Y-55064286D01*
X117757750Y-55064286D01*
X117774443Y-55234536D01*
X117828440Y-55396856D01*
X117832087Y-55402878D01*
X117832088Y-55402880D01*
X117913406Y-55537154D01*
X117913409Y-55537157D01*
X117917056Y-55543180D01*
X118035889Y-55666234D01*
X118179030Y-55759903D01*
X118185634Y-55762359D01*
X118185636Y-55762360D01*
X118332757Y-55817074D01*
X118332759Y-55817074D01*
X118339367Y-55819532D01*
X118418454Y-55830085D01*
X118501949Y-55841226D01*
X118501953Y-55841226D01*
X118508930Y-55842157D01*
X118515941Y-55841519D01*
X118515945Y-55841519D01*
X118672273Y-55827292D01*
X118672275Y-55827292D01*
X118679292Y-55826653D01*
X118685990Y-55824477D01*
X118685993Y-55824476D01*
X118835289Y-55775966D01*
X118835291Y-55775965D01*
X118841985Y-55773790D01*
X118988924Y-55686197D01*
X119112805Y-55568227D01*
X119126079Y-55548249D01*
X119203570Y-55431614D01*
X119207471Y-55425743D01*
X119268218Y-55265826D01*
X119292026Y-55096425D01*
X119292325Y-55075000D01*
X119273256Y-54905000D01*
X119216999Y-54743450D01*
X119126348Y-54598378D01*
X119113159Y-54585096D01*
X119010772Y-54481992D01*
X119005809Y-54476994D01*
X118940539Y-54435573D01*
X118867316Y-54389104D01*
X118867313Y-54389102D01*
X118861373Y-54385333D01*
X118854740Y-54382971D01*
X118706854Y-54330311D01*
X118706849Y-54330310D01*
X118700219Y-54327949D01*
X118693231Y-54327116D01*
X118693228Y-54327115D01*
X118567759Y-54312154D01*
X118530357Y-54307694D01*
X118523354Y-54308430D01*
X118523353Y-54308430D01*
X118487922Y-54312154D01*
X118360228Y-54325575D01*
X118350071Y-54329033D01*
X118204956Y-54378434D01*
X118204953Y-54378435D01*
X118198289Y-54380704D01*
X118052588Y-54470340D01*
X118047557Y-54475267D01*
X118047554Y-54475269D01*
X118040689Y-54481992D01*
X117930366Y-54590028D01*
X117926547Y-54595953D01*
X117926546Y-54595955D01*
X117912882Y-54617157D01*
X117837698Y-54733820D01*
X117835287Y-54740443D01*
X117835286Y-54740446D01*
X117781600Y-54887947D01*
X117781599Y-54887952D01*
X117779190Y-54894570D01*
X117757750Y-55064286D01*
X113266123Y-55064286D01*
X113248256Y-54905000D01*
X113191999Y-54743450D01*
X113101348Y-54598378D01*
X113088159Y-54585096D01*
X112985772Y-54481992D01*
X112980809Y-54476994D01*
X112915539Y-54435573D01*
X112842316Y-54389104D01*
X112842313Y-54389102D01*
X112836373Y-54385333D01*
X112829740Y-54382971D01*
X112681854Y-54330311D01*
X112681849Y-54330310D01*
X112675219Y-54327949D01*
X112668231Y-54327116D01*
X112668228Y-54327115D01*
X112542759Y-54312154D01*
X112505357Y-54307694D01*
X112498354Y-54308430D01*
X112498353Y-54308430D01*
X112462922Y-54312154D01*
X112335228Y-54325575D01*
X112325071Y-54329033D01*
X112179956Y-54378434D01*
X112179953Y-54378435D01*
X112173289Y-54380704D01*
X112027588Y-54470340D01*
X112022557Y-54475267D01*
X112022554Y-54475269D01*
X112015689Y-54481992D01*
X111905366Y-54590028D01*
X111901547Y-54595953D01*
X111901546Y-54595955D01*
X111887882Y-54617157D01*
X111812698Y-54733820D01*
X111810287Y-54740443D01*
X111810286Y-54740446D01*
X111756600Y-54887947D01*
X111756599Y-54887952D01*
X111754190Y-54894570D01*
X111732750Y-55064286D01*
X100508000Y-55064286D01*
X100508000Y-53839286D01*
X105507750Y-53839286D01*
X105524443Y-54009536D01*
X105578440Y-54171856D01*
X105582087Y-54177878D01*
X105582088Y-54177880D01*
X105663406Y-54312154D01*
X105663409Y-54312157D01*
X105667056Y-54318180D01*
X105785889Y-54441234D01*
X105929030Y-54534903D01*
X105935634Y-54537359D01*
X105935636Y-54537360D01*
X106082757Y-54592074D01*
X106082759Y-54592074D01*
X106089367Y-54594532D01*
X106162963Y-54604352D01*
X106251949Y-54616226D01*
X106251953Y-54616226D01*
X106258930Y-54617157D01*
X106265941Y-54616519D01*
X106265945Y-54616519D01*
X106422273Y-54602292D01*
X106422275Y-54602292D01*
X106429292Y-54601653D01*
X106435990Y-54599477D01*
X106435993Y-54599476D01*
X106585289Y-54550966D01*
X106585291Y-54550965D01*
X106591985Y-54548790D01*
X106704040Y-54481992D01*
X106732872Y-54464805D01*
X106732874Y-54464804D01*
X106738924Y-54461197D01*
X106862805Y-54343227D01*
X106871387Y-54330311D01*
X106953570Y-54206614D01*
X106957471Y-54200743D01*
X107018218Y-54040826D01*
X107042026Y-53871425D01*
X107042325Y-53850000D01*
X107023256Y-53680000D01*
X106966999Y-53518450D01*
X106876348Y-53373378D01*
X106863159Y-53360096D01*
X106760772Y-53256992D01*
X106755809Y-53251994D01*
X106690539Y-53210573D01*
X106617316Y-53164104D01*
X106617313Y-53164102D01*
X106611373Y-53160333D01*
X106604740Y-53157971D01*
X106456854Y-53105311D01*
X106456849Y-53105310D01*
X106450219Y-53102949D01*
X106443231Y-53102116D01*
X106443228Y-53102115D01*
X106327655Y-53088334D01*
X106280357Y-53082694D01*
X106273354Y-53083430D01*
X106273353Y-53083430D01*
X106228958Y-53088096D01*
X106110228Y-53100575D01*
X106100071Y-53104033D01*
X105954956Y-53153434D01*
X105954953Y-53153435D01*
X105948289Y-53155704D01*
X105802588Y-53245340D01*
X105797557Y-53250267D01*
X105797554Y-53250269D01*
X105790689Y-53256992D01*
X105680366Y-53365028D01*
X105676547Y-53370953D01*
X105676546Y-53370955D01*
X105671135Y-53379352D01*
X105587698Y-53508820D01*
X105585287Y-53515443D01*
X105585286Y-53515446D01*
X105531600Y-53662947D01*
X105531599Y-53662952D01*
X105529190Y-53669570D01*
X105507750Y-53839286D01*
X100508000Y-53839286D01*
X100508000Y-52001000D01*
X100528002Y-51932879D01*
X100581658Y-51886386D01*
X100634000Y-51875000D01*
X130624000Y-51875000D01*
X130692121Y-51895002D01*
G37*
%TD.AperFunction*%
%TD*%
M02*
