%TF.GenerationSoftware,KiCad,Pcbnew,6.0.2-378541a8eb~116~ubuntu20.04.1*%
%TF.CreationDate,2022-03-10T11:15:54-06:00*%
%TF.ProjectId,lna_sma_10x,6c6e615f-736d-4615-9f31-30782e6b6963,1.0*%
%TF.SameCoordinates,Original*%
%TF.FileFunction,Soldermask,Top*%
%TF.FilePolarity,Negative*%
%FSLAX46Y46*%
G04 Gerber Fmt 4.6, Leading zero omitted, Abs format (unit mm)*
G04 Created by KiCad (PCBNEW 6.0.2-378541a8eb~116~ubuntu20.04.1) date 2022-03-10 11:15:54*
%MOMM*%
%LPD*%
G01*
G04 APERTURE LIST*
G04 Aperture macros list*
%AMRoundRect*
0 Rectangle with rounded corners*
0 $1 Rounding radius*
0 $2 $3 $4 $5 $6 $7 $8 $9 X,Y pos of 4 corners*
0 Add a 4 corners polygon primitive as box body*
4,1,4,$2,$3,$4,$5,$6,$7,$8,$9,$2,$3,0*
0 Add four circle primitives for the rounded corners*
1,1,$1+$1,$2,$3*
1,1,$1+$1,$4,$5*
1,1,$1+$1,$6,$7*
1,1,$1+$1,$8,$9*
0 Add four rect primitives between the rounded corners*
20,1,$1+$1,$2,$3,$4,$5,0*
20,1,$1+$1,$4,$5,$6,$7,0*
20,1,$1+$1,$6,$7,$8,$9,0*
20,1,$1+$1,$8,$9,$2,$3,0*%
G04 Aperture macros list end*
%ADD10RoundRect,0.150000X0.825000X0.150000X-0.825000X0.150000X-0.825000X-0.150000X0.825000X-0.150000X0*%
%ADD11RoundRect,0.150000X-0.825000X-0.150000X0.825000X-0.150000X0.825000X0.150000X-0.825000X0.150000X0*%
%ADD12RoundRect,0.250000X0.400000X0.625000X-0.400000X0.625000X-0.400000X-0.625000X0.400000X-0.625000X0*%
%ADD13RoundRect,0.250000X0.625000X-0.400000X0.625000X0.400000X-0.625000X0.400000X-0.625000X-0.400000X0*%
%ADD14RoundRect,0.250000X-0.400000X-0.625000X0.400000X-0.625000X0.400000X0.625000X-0.400000X0.625000X0*%
%ADD15R,5.080000X1.500000*%
%ADD16C,1.700000*%
%ADD17RoundRect,0.250000X0.850000X0.600000X-0.850000X0.600000X-0.850000X-0.600000X0.850000X-0.600000X0*%
%ADD18O,2.200000X1.700000*%
%ADD19RoundRect,0.250000X0.650000X-0.412500X0.650000X0.412500X-0.650000X0.412500X-0.650000X-0.412500X0*%
%ADD20RoundRect,0.250000X-0.650000X0.412500X-0.650000X-0.412500X0.650000X-0.412500X0.650000X0.412500X0*%
%ADD21RoundRect,0.250000X0.412500X0.650000X-0.412500X0.650000X-0.412500X-0.650000X0.412500X-0.650000X0*%
%ADD22RoundRect,0.250000X-0.412500X-0.650000X0.412500X-0.650000X0.412500X0.650000X-0.412500X0.650000X0*%
G04 APERTURE END LIST*
D10*
%TO.C,U2*%
X124675000Y-59630000D03*
X124675000Y-58360000D03*
X124675000Y-57090000D03*
X124675000Y-55820000D03*
X119725000Y-55820000D03*
X119725000Y-57090000D03*
X119725000Y-58360000D03*
X119725000Y-59630000D03*
%TD*%
D11*
%TO.C,U1*%
X120825000Y-73620000D03*
X120825000Y-74890000D03*
X120825000Y-76160000D03*
X120825000Y-77430000D03*
X125775000Y-77430000D03*
X125775000Y-76160000D03*
X125775000Y-74890000D03*
X125775000Y-73620000D03*
%TD*%
D12*
%TO.C,R8*%
X112975000Y-59650000D03*
X109875000Y-59650000D03*
%TD*%
D13*
%TO.C,R7*%
X120100000Y-65100000D03*
X120100000Y-62000000D03*
%TD*%
%TO.C,R6*%
X127225000Y-67850000D03*
X127225000Y-64750000D03*
%TD*%
%TO.C,R5*%
X122600000Y-68525000D03*
X122600000Y-65425000D03*
%TD*%
D14*
%TO.C,R4*%
X116875000Y-69000000D03*
X119975000Y-69000000D03*
%TD*%
D13*
%TO.C,R3*%
X116775000Y-80175000D03*
X116775000Y-77075000D03*
%TD*%
%TO.C,R2*%
X113325000Y-80125000D03*
X113325000Y-77025000D03*
%TD*%
%TO.C,R1*%
X109200000Y-76925000D03*
X109200000Y-80025000D03*
%TD*%
D15*
%TO.C,J3*%
X103037500Y-58100000D03*
X103037500Y-53850000D03*
X103037500Y-62350000D03*
%TD*%
D16*
%TO.C,J2*%
X102685000Y-67225000D03*
X102685000Y-72225000D03*
D17*
X109865000Y-72225000D03*
D18*
X109865000Y-69725000D03*
X109865000Y-67225000D03*
%TD*%
D15*
%TO.C,J1*%
X103037488Y-81474996D03*
X103037488Y-77224996D03*
X103037488Y-85724996D03*
%TD*%
D19*
%TO.C,C7*%
X129250000Y-75137500D03*
X129250000Y-78262500D03*
%TD*%
D20*
%TO.C,C6*%
X128225000Y-61162500D03*
X128225000Y-58037500D03*
%TD*%
%TO.C,C5*%
X113650000Y-71525000D03*
X113650000Y-74650000D03*
%TD*%
%TO.C,C4*%
X120850000Y-80987500D03*
X120850000Y-84112500D03*
%TD*%
D21*
%TO.C,C3*%
X117037500Y-55075000D03*
X113912500Y-55075000D03*
%TD*%
D22*
%TO.C,C2*%
X109537500Y-82700000D03*
X112662500Y-82700000D03*
%TD*%
D20*
%TO.C,C1*%
X113600000Y-68500000D03*
X113600000Y-65375000D03*
%TD*%
M02*
