M48
; DRILL file {KiCad 6.0.2-378541a8eb~116~ubuntu20.04.1} date Thu 10 Mar 2022 11:16:33 AM CST
; FORMAT={-:-/ absolute / inch / decimal}
; #@! TF.CreationDate,2022-03-10T11:16:33-06:00
; #@! TF.GenerationSoftware,Kicad,Pcbnew,6.0.2-378541a8eb~116~ubuntu20.04.1
; #@! TF.FileFunction,MixedPlating,1,4
FMAT,2
INCH
; #@! TA.AperFunction,Plated,PTH,ViaDrill
T1C0.0100
; #@! TA.AperFunction,Plated,PTH,ComponentDrill
T2C0.0472
; #@! TA.AperFunction,NonPlated,NPTH,ComponentDrill
T3C0.0669
%
G90
G05
T1
X4.1732Y-2.4547
X4.1732Y-3.0404
X4.1762Y-3.375
X4.1841Y-2.1201
X4.3789Y-3.0285
X4.3868Y-2.749
X4.4094Y-2.6132
X4.4193Y-2.8789
X4.4291Y-2.1683
X4.5423Y-2.6969
X4.6663Y-2.1683
X4.7008Y-3.31
X4.7579Y-3.0915
X4.9646Y-2.3976
X4.999Y-2.2854
X5.0187Y-2.9488
X5.0374Y-3.0807
T2
X4.3254Y-2.6467
X4.3254Y-2.7451
X4.3254Y-2.8435
T3
X4.0427Y-2.6467
X4.0427Y-2.8435
T0
M30
